<svg width="40" height="40" viewBox="0 0 40 40" fill="none" xmlns="http://www.w3.org/2000/svg">
<circle cx="20" cy="20" r="20" fill="#D5A6FD"/>
<g clip-path="url(#clip0_1_399)">
<path d="M13.2487 23.9485C13.3694 23.833 13.5353 23.7656 13.7113 23.7656H29.6731C29.9648 23.7656 30.1107 24.1025 29.9045 24.2998L26.7513 27.3171C26.6306 27.4326 26.4647 27.5 26.2887 27.5H10.3269C10.0352 27.5 9.88937 27.1631 10.0956 26.9658L13.2487 23.9485Z" fill="white"/>
<path d="M13.2487 12.6829C13.3744 12.5674 13.5404 12.5 13.7113 12.5H29.6731C29.9648 12.5 30.1107 12.8369 29.9045 13.0342L26.7513 16.0515C26.6306 16.167 26.4647 16.2344 26.2887 16.2344H10.3269C10.0352 16.2344 9.88937 15.8975 10.0956 15.7002L13.2487 12.6829Z" fill="white"/>
<path d="M26.7513 18.2796C26.6306 18.1641 26.4647 18.0967 26.2887 18.0967H10.3269C10.0352 18.0967 9.88937 18.4336 10.0956 18.6309L13.2487 21.6482C13.3694 21.7637 13.5353 21.8311 13.7113 21.8311H29.6731C29.9648 21.8311 30.1107 21.4942 29.9045 21.2969L26.7513 18.2796Z" fill="white"/>
</g>
<defs>
<clipPath id="clip0_1_399">
<rect width="20" height="15" fill="white" transform="translate(10 12.5)"/>
</clipPath>
</defs>
</svg>
